<?xml version="1.0" standalone="no"?>
<!DOCTYPE svg PUBLIC "-//W3C//DTD SVG 20010904//EN"
 "http://www.w3.org/TR/2001/REC-SVG-20010904/DTD/svg10.dtd">
<svg version="1.0" xmlns="http://www.w3.org/2000/svg"
 width="150.000000pt" height="150.000000pt" viewBox="0 0 150.000000 150.000000"
 preserveAspectRatio="xMidYMid meet">

<g transform="translate(0.000000,150.000000) scale(0.100000,-0.100000)"
fill="#000000" stroke="none">
<path d="M688 1258 l-3 -103 -31 95 -31 95 -39 -3 c-21 -2 -40 -5 -42 -7 -4
-3 16 -182 24 -222 7 -33 44 -31 44 2 0 29 29 35 36 7 4 -14 14 -16 50 -14
l44 4 1 47 1 46 10 -47 c9 -41 14 -48 34 -48 l24 0 0 125 0 125 -25 0 c-23 0
-25 -4 -26 -42 -1 -24 -3 -34 -6 -23 -2 11 -6 30 -9 43 -3 15 -12 22 -29 22
-24 0 -24 -1 -27 -102z m-74 -31 c12 -40 12 -47 0 -47 -8 0 -14 8 -14 19 0 10
-3 34 -6 52 -9 47 3 32 20 -24z"/>
<path d="M907 1218 c-26 -61 -46 -112 -45 -113 2 -1 13 -5 24 -9 16 -5 23 -2
27 14 7 27 37 16 34 -13 -2 -24 31 -37 43 -17 5 8 10 3 14 -14 6 -25 43 -44
73 -38 7 2 10 -3 7 -11 -6 -16 56 -67 83 -67 12 0 14 -3 6 -8 -8 -5 -8 -12 3
-26 11 -16 16 -17 29 -6 23 19 40 -8 20 -30 -13 -14 -12 -18 2 -33 15 -15 22
-11 102 60 47 43 88 79 91 80 6 5 -32 73 -41 73 -8 0 -66 -33 -149 -83 -33
-20 -31 -17 23 46 32 39 57 78 57 91 0 22 -47 76 -66 76 -5 0 -36 -31 -69 -69
-33 -38 -62 -67 -64 -65 -3 2 1 10 7 16 17 17 15 35 -5 42 -12 5 -23 -1 -36
-19 -34 -46 -38 -14 -6 43 18 31 36 63 42 69 15 20 28 4 16 -18 -7 -15 -7 -24
2 -35 17 -21 27 -17 45 17 20 39 7 74 -32 89 -37 15 -58 -1 -101 -75 -20 -35
-38 -63 -40 -61 -3 3 22 135 33 167 3 12 -5 20 -27 28 -18 6 -37 11 -43 11 -6
0 -32 -50 -59 -112z m62 -12 c-6 -25 -15 -46 -20 -46 -12 0 -11 8 7 57 21 55
28 49 13 -11z m245 -151 c-46 -53 -64 -66 -64 -46 0 16 104 124 108 112 2 -6
-18 -35 -44 -66z m146 -58 c0 -11 -90 -75 -95 -67 -3 5 16 23 42 40 49 30 53
32 53 27z"/>
<path d="M446 1307 c-17 -12 -16 -16 8 -71 15 -33 25 -61 23 -62 -2 -2 -18 21
-36 51 -35 58 -38 60 -61 45 -13 -8 -13 -14 2 -52 30 -81 30 -83 -7 -26 -32
50 -39 57 -56 48 -10 -6 -19 -13 -19 -15 0 -9 130 -205 135 -205 4 0 15 5 26
10 23 13 24 31 3 71 -24 47 -9 46 17 0 24 -44 34 -48 62 -27 17 13 15 20 -24
122 -23 60 -45 112 -48 117 -4 4 -15 1 -25 -6z"/>
<path d="M240 1172 c-28 -9 -50 -35 -50 -58 0 -30 104 -152 136 -160 36 -9 74
19 74 56 0 21 -15 45 -56 90 -62 67 -81 80 -104 72z m110 -161 c0 -22 -19 -10
-64 43 -64 75 -57 93 9 24 30 -31 55 -61 55 -67z"/>
<path d="M728 1072 c-16 -2 -30 -11 -33 -23 -6 -19 -21 -24 -59 -21 -28 3 -91
-36 -109 -68 -22 -37 -21 -80 2 -170 11 -41 18 -78 15 -82 -3 -4 -2 -13 2 -20
8 -12 16 -55 18 -95 0 -13 5 -23 10 -23 4 0 5 -7 2 -16 -12 -31 21 -85 62
-101 36 -14 42 -21 71 -97 39 -105 40 -137 1 -186 -33 -42 -40 -95 -17 -143
11 -24 17 -27 67 -27 50 0 56 3 68 27 7 16 12 70 12 135 0 81 4 116 17 143 11
24 14 39 7 43 -6 4 -13 15 -17 25 -10 26 -47 22 -48 -5 0 -22 -1 -22 -9 -3 -5
11 -9 32 -9 47 -1 24 4 29 42 38 79 20 124 40 152 70 25 26 27 33 21 74 -4 25
-11 46 -16 46 -4 0 -6 9 -3 20 3 12 0 20 -7 20 -10 0 -10 3 -1 14 9 10 9 16 1
21 -6 4 -9 13 -6 21 3 7 1 16 -5 20 -5 3 -7 14 -4 25 4 10 2 19 -2 19 -8 0
-14 39 -15 98 0 12 -5 22 -10 22 -6 0 -7 7 -4 16 12 30 -12 89 -44 107 -43 26
-100 37 -152 29z m6 -58 c9 -23 7 -54 -3 -54 -5 0 -16 -3 -24 -6 -18 -7 -30
45 -15 64 14 17 35 15 42 -4z m-87 -43 c7 -19 7 -33 1 -39 -6 -6 -6 -24 1 -50
6 -22 8 -47 5 -56 -3 -9 -1 -16 6 -16 6 0 9 -4 6 -9 -3 -4 1 -50 10 -102 27
-168 27 -169 4 -169 -18 0 -21 6 -20 43 0 66 -1 76 -10 82 -4 3 -6 14 -3 25 4
15 0 20 -13 21 -11 0 -14 3 -6 6 18 7 15 33 -5 34 -11 0 -13 3 -5 6 18 7 15
33 -5 34 -11 0 -13 3 -5 6 20 8 15 43 -5 37 -16 -5 -16 -4 1 10 21 17 13 38
-12 30 -16 -5 -16 -5 1 9 25 21 21 38 -10 35 -21 -2 -28 2 -34 24 -7 26 -4 30
34 47 54 25 51 25 64 -8z m212 11 c26 -1 38 -9 28 -18 -12 -13 -77 7 -77 23 0
11 4 13 13 6 6 -5 23 -10 36 -11z m17 -47 c14 -13 13 -15 -5 -15 -12 0 -21 6
-21 15 0 8 3 15 6 15 3 0 12 -7 20 -15z m23 -52 c2 -2 -10 -3 -28 -3 -27 0
-30 2 -19 14 10 11 17 11 28 3 8 -6 17 -13 19 -14z m-144 -3 c-3 -5 -16 -10
-28 -9 -21 0 -21 1 -2 9 28 12 37 12 30 0z m142 -46 c-3 -3 -15 -3 -26 1 -16
5 -18 9 -9 19 10 11 15 10 26 -1 8 -8 12 -16 9 -19z m18 -74 c3 -5 -1 -10 -9
-10 -9 0 -16 5 -16 10 0 6 4 10 9 10 6 0 13 -4 16 -10z m-135 -10 c0 -5 -12
-10 -27 -9 -25 0 -26 1 -8 9 27 12 35 12 35 0z m150 -33 c8 -3 0 -6 -18 -6
-28 -1 -31 1 -20 13 7 8 15 10 18 6 3 -4 12 -10 20 -13z m-5 -47 c-3 -5 -12
-7 -20 -3 -21 7 -19 13 6 13 11 0 18 -4 14 -10z m22 -49 c-7 -2 -15 -9 -19
-15 -5 -8 -8 -7 -8 2 0 6 -7 12 -16 12 -13 0 -14 3 -5 14 9 11 17 11 36 2 14
-6 19 -13 12 -15z m-144 -47 c-5 -13 -7 -13 -14 -2 -7 10 -9 10 -9 1 0 -7 -4
-13 -10 -13 -18 0 -11 58 8 62 19 4 34 -24 25 -48z m-13 -414 c0 -80 -4 -120
-11 -120 -7 0 -9 24 -5 72 3 40 5 94 6 121 0 26 2 47 5 47 3 0 5 -54 5 -120z
m-52 10 c-7 -11 -19 -22 -28 -25 -8 -4 -4 5 9 19 29 31 36 33 19 6z"/>
<path d="M701 1004 c0 -11 3 -14 6 -6 3 7 2 16 -1 19 -3 4 -6 -2 -5 -13z"/>
<path d="M96 1025 c-15 -19 -24 -40 -21 -45 3 -5 47 -39 97 -75 84 -60 93 -64
107 -50 15 15 12 20 -29 55 -49 43 -38 55 14 15 39 -29 52 -31 60 -8 7 17 -23
48 -73 75 -13 7 -37 25 -52 41 -38 38 -70 35 -103 -8z m73 -28 c6 -8 8 -17 4
-20 -7 -8 -33 11 -33 24 0 13 16 11 29 -4z"/>
<path d="M470 520 c0 -5 5 -10 10 -10 6 0 10 5 10 10 0 6 -4 10 -10 10 -5 0
-10 -4 -10 -10z"/>
<path d="M956 135 c-16 -12 -17 -15 -4 -15 9 0 19 -6 22 -12 5 -10 7 -10 12 0
3 6 13 12 22 12 13 0 12 3 -4 15 -10 8 -21 14 -24 14 -3 0 -14 -6 -24 -14z"/>
</g>
</svg>
